<svg width="203" height="50" viewBox="0 0 203 50" fill="none" xmlns="http://www.w3.org/2000/svg">
<rect x="0.5" y="0.5" width="49" height="49" rx="9.5" fill="#2563EB" stroke="black"/>
<path d="M25.6387 30.1426V12.4062H30.8945V30.1426C30.8945 31.8535 30.5195 33.3242 29.7695 34.5547C29.0195 35.7734 27.9941 36.7109 26.6934 37.3672C25.4043 38.0234 23.9512 38.3516 22.334 38.3516C20.6582 38.3516 19.1758 38.0703 17.8867 37.5078C16.5977 36.9453 15.584 36.084 14.8457 34.9238C14.1074 33.752 13.7383 32.2695 13.7383 30.4766H19.0293C19.0293 31.4141 19.1582 32.1582 19.416 32.709C19.6855 33.2598 20.0664 33.6523 20.5586 33.8867C21.0508 34.1211 21.6426 34.2383 22.334 34.2383C23.002 34.2383 23.582 34.0801 24.0742 33.7637C24.5664 33.4473 24.9473 32.9844 25.2168 32.375C25.498 31.7656 25.6387 31.0215 25.6387 30.1426Z" fill="white"/>
<path d="M82.048 19.152V30.624C82.048 32.4 81.544 33.768 80.536 34.728C79.544 35.688 78.2 36.168 76.504 36.168C74.728 36.168 73.304 35.664 72.232 34.656C71.16 33.648 70.624 32.216 70.624 30.36H74.704C74.704 31.064 74.848 31.6 75.136 31.968C75.424 32.32 75.84 32.496 76.384 32.496C76.88 32.496 77.264 32.336 77.536 32.016C77.808 31.696 77.944 31.232 77.944 30.624V19.152H82.048ZM93.859 36.192C92.547 36.192 91.363 35.912 90.307 35.352C89.267 34.792 88.443 33.992 87.835 32.952C87.243 31.912 86.947 30.696 86.947 29.304C86.947 27.928 87.251 26.72 87.859 25.68C88.467 24.624 89.299 23.816 90.355 23.256C91.411 22.696 92.595 22.416 93.907 22.416C95.219 22.416 96.403 22.696 97.459 23.256C98.515 23.816 99.347 24.624 99.955 25.68C100.563 26.72 100.867 27.928 100.867 29.304C100.867 30.68 100.555 31.896 99.931 32.952C99.323 33.992 98.483 34.792 97.411 35.352C96.355 35.912 95.171 36.192 93.859 36.192ZM93.859 32.64C94.643 32.64 95.307 32.352 95.851 31.776C96.411 31.2 96.691 30.376 96.691 29.304C96.691 28.232 96.419 27.408 95.875 26.832C95.347 26.256 94.691 25.968 93.907 25.968C93.107 25.968 92.443 26.256 91.915 26.832C91.387 27.392 91.123 28.216 91.123 29.304C91.123 30.376 91.379 31.2 91.891 31.776C92.419 32.352 93.075 32.64 93.859 32.64ZM109.548 24.504C109.932 23.88 110.484 23.376 111.204 22.992C111.924 22.608 112.748 22.416 113.676 22.416C114.78 22.416 115.78 22.696 116.676 23.256C117.572 23.816 118.276 24.616 118.788 25.656C119.316 26.696 119.58 27.904 119.58 29.28C119.58 30.656 119.316 31.872 118.788 32.928C118.276 33.968 117.572 34.776 116.676 35.352C115.78 35.912 114.78 36.192 113.676 36.192C112.732 36.192 111.908 36.008 111.204 35.64C110.5 35.256 109.948 34.752 109.548 34.128V36H105.444V18.24H109.548V24.504ZM115.404 29.28C115.404 28.256 115.116 27.456 114.54 26.88C113.98 26.288 113.284 25.992 112.452 25.992C111.636 25.992 110.94 26.288 110.364 26.88C109.804 27.472 109.524 28.28 109.524 29.304C109.524 30.328 109.804 31.136 110.364 31.728C110.94 32.32 111.636 32.616 112.452 32.616C113.268 32.616 113.964 32.32 114.54 31.728C115.116 31.12 115.404 30.304 115.404 29.28ZM126.197 21.216C125.477 21.216 124.885 21.008 124.421 20.592C123.973 20.16 123.749 19.632 123.749 19.008C123.749 18.368 123.973 17.84 124.421 17.424C124.885 16.992 125.477 16.776 126.197 16.776C126.901 16.776 127.477 16.992 127.925 17.424C128.389 17.84 128.621 18.368 128.621 19.008C128.621 19.632 128.389 20.16 127.925 20.592C127.477 21.008 126.901 21.216 126.197 21.216ZM128.237 22.608V36H124.133V22.608H128.237ZM140.331 26.016H138.123V36H134.019V26.016H132.531V22.608H134.019V22.224C134.019 20.576 134.491 19.328 135.435 18.48C136.379 17.616 137.763 17.184 139.587 17.184C139.891 17.184 140.115 17.192 140.259 17.208V20.688C139.475 20.64 138.923 20.752 138.603 21.024C138.283 21.296 138.123 21.784 138.123 22.488V22.608H140.331V26.016ZM158.34 22.608L149.94 42.36H145.524L148.596 35.544L143.148 22.608H147.732L150.828 30.984L153.9 22.608H158.34Z" fill="#2563EB"/>
</svg>
